<svg xmlns="http://www.w3.org/2000/svg" width="256" height="256" viewBox="0 0 256 256">
<rect x="8" y="8" width="240" height="240" rx="56" fill="#FFF8EA"/>
<ellipse cx="128" cy="206" rx="86" ry="14" fill="#5A3825" opacity="0.18"/>
<path d="M44 120 C44 70 84 48 128 48 C172 48 212 70 212 120 L212 180 Q212 200 192 200 L64 200 Q44 200 44 180 Z" fill="#A0612B"/>
<path d="M52 122 C52 78 88 58 128 58 C168 58 204 78 204 122 L204 176 Q204 192 188 192 L68 192 Q52 192 52 176 Z" fill="#D9914A"/>
<path d="M72 92 C84 72 108 64 128 64" stroke="#F1B96B" stroke-width="10" stroke-linecap="round" fill="none" opacity="0.8"/>
<path d="M92 84 q10 -10 20 0" stroke="#A0612B" stroke-width="6" stroke-linecap="round" fill="none"/>
<path d="M128 84 q10 -10 20 0" stroke="#A0612B" stroke-width="6" stroke-linecap="round" fill="none"/>
<path d="M164 84 q10 -10 20 0" stroke="#A0612B" stroke-width="6" stroke-linecap="round" fill="none"/>
<rect x="72" y="112" width="112" height="70" rx="22" fill="#FBE3B5"/>
<circle cx="106" cy="142" r="7" fill="#5A3825"/>
<circle cx="150" cy="142" r="7" fill="#5A3825"/>
<circle cx="94" cy="158" r="7" fill="#F08A80" opacity="0.55"/>
<circle cx="162" cy="158" r="7" fill="#F08A80" opacity="0.55"/>
<path d="M118 156 q10 10 20 0" stroke="#5A3825" stroke-width="5" stroke-linecap="round" fill="none"/>
</svg>
